Coordinates
version=1
nRows=29
nColumns=24
inDegrees=yes

Units are S.I. units (second, meters, Newtons, ...)
Angles are in degrees.

endheader
time	pelvis_tilt	pelvis_list	pelvis_rotation	pelvis_tx	pelvis_ty	pelvis_tz	hip_flexion_r	hip_adduction_r	hip_rotation_r	knee_angle_r	ankle_angle_r	subtalar_angle_r	mtp_angle_r	hip_flexion_l	hip_adduction_l	hip_rotation_l	knee_angle_l	ankle_angle_l	subtalar_angle_l	mtp_angle_l	lumbar_extension	lumbar_bending	lumbar_rotation
      1.12116667	     -0.57526928	     -3.40504948	      6.12898920	      0.51536422	      1.02709482	      0.30351611	     12.50237022	     10.18746312	      1.57471385	    -21.30397009	      4.89130169	    -14.86168058	      7.61479253	     14.63635001	     -6.52255865	     -0.80395247	    -58.24254052	     10.07456802	     -0.15506499	      2.55156344	     -0.56802681	      0.08074574	     -2.70480984
      1.12533333	     -0.52611619	     -3.35509095	      5.95059763	      0.51967190	      1.02766105	      0.30391280	     12.03382320	     10.21114931	      1.77793925	    -21.03841646	      4.96160609	    -14.85046595	      7.54045139	     15.10810776	     -6.43609506	     -0.85600617	    -57.79091328	     10.33995348	     -0.38440867	      2.50420814	     -0.73244859	      0.03341728	     -2.46262318
      1.12950000	     -0.45941478	     -3.31337792	      5.79700474	      0.52400542	      1.02822783	      0.30425465	     11.54012531	     10.23237225	      1.92787495	    -20.75295030	      5.02906202	    -14.81389985	      7.43555036	     15.55410557	     -6.35872655	     -0.89043083	    -57.30638441	     10.58196054	     -0.58676277	      2.43010426	     -0.85419204	     -0.02459702	     -2.23465617
      1.13366667	     -0.45558055	     -3.27254665	      5.63842433	      0.52832313	      1.02866139	      0.30458593	     11.13307368	     10.24190070	      2.06125147	    -20.50728690	      5.12066971	    -14.75386881	      7.40410825	     16.06244019	     -6.27583231	     -0.92707603	    -56.80174634	     10.84595896	     -0.78428171	      2.40596589	     -0.91209612	     -0.07404501	     -2.16548337
      1.13783333	     -0.40950321	     -3.21594489	      5.47356144	      0.53260766	      1.02915100	      0.30490996	     10.68066762	     10.23933604	      2.21987839	    -20.26587794	      5.22644125	    -14.68485526	      7.35007661	     16.50458354	     -6.17693132	     -0.96445493	    -56.24452743	     11.02144091	     -1.02287865	      2.35709949	     -1.06254264	     -0.12936137	     -1.99279742
      1.14200000	     -0.35957084	     -3.17554147	      5.32783449	      0.53692037	      1.02961641	      0.30518251	     10.22066674	     10.24280560	      2.33530961	    -20.01090354	      5.32637384	    -14.59687563	      7.24367375	     16.93557749	     -6.09332830	     -0.98178181	    -55.65814991	     11.17647634	     -1.22993192	      2.25717633	     -1.16551031	     -0.17314170	     -1.76768453
      1.14616667	     -0.35178871	     -3.15951744	      5.17968349	      0.54122360	      1.02995686	      0.30547273	      9.81467373	     10.27038711	      2.46263173	    -19.76712079	      5.43483081	    -14.52867825	      7.21701628	     17.41411062	     -6.04367930	     -1.01215125	    -55.06713133	     11.36490849	     -1.40411846	      2.22889259	     -1.22187519	     -0.20489404	     -1.71237394
      1.15033333	     -0.31542407	     -3.11750972	      5.02329217	      0.54551526	      1.03034402	      0.30574442	      9.37826537	     10.26947688	      2.59868826	    -19.53167820	      5.55531478	    -14.44830237	      7.17947184	     17.83543369	     -5.96404526	     -1.04613100	    -54.42055307	     11.48035518	     -1.62931394	      2.18498388	     -1.32809755	     -0.25637648	     -1.59154886
      1.15450000	     -0.28720978	     -3.07389040	      4.86747089	      0.54977736	      1.03069120	      0.30599324	      8.96241535	     10.26265414	      2.73416589	    -19.32032456	      5.68004530	    -14.34860342	      7.12391664	     18.25308670	     -5.87267867	     -1.05780763	    -53.73843911	     11.54113538	     -1.86437763	      2.11887959	     -1.45934313	     -0.29415293	     -1.41776844
      1.15866667	     -0.27423413	     -3.03469711	      4.72722123	      0.55406604	      1.03098874	      0.30621229	      8.56126354	     10.25123637	      2.83191525	    -19.10201630	      5.81857360	    -14.22818246	      7.03441937	     18.67885573	     -5.78370230	     -1.05867999	    -53.03031319	     11.57615101	     -2.09255109	      2.01326984	     -1.52666027	     -0.34494667	     -1.22955594
      1.16283333	     -0.26540341	     -3.01318176	      4.56112393	      0.55834658	      1.03123494	      0.30645882	      8.17079378	     10.26469264	      2.98236655	    -18.89746199	      5.94871401	    -14.14314253	      6.98229384	     19.09719385	     -5.72845455	     -1.09342730	    -52.30638513	     11.65253830	     -2.28666007	      1.94791253	     -1.60819932	     -0.36057777	     -1.13726188
      1.16700000	     -0.24003648	     -2.98237614	      4.41969944	      0.56262767	      1.03149096	      0.30665338	      7.76205172	     10.25878562	      3.08086516	    -18.68735088	      6.08353105	    -14.03006352	      6.88810509	     19.48415606	     -5.65024929	     -1.08821161	    -51.54088860	     11.65169842	     -2.52055760	      1.83033168	     -1.68964122	     -0.39683166	     -0.96628286
      1.17116667	     -0.25014564	     -2.95308631	      4.24199939	      0.56691311	      1.03166948	      0.30690082	      7.39741764	     10.26020957	      3.24840332	    -18.49788210	      6.22224013	    -13.95219626	      6.83700831	     19.88992573	     -5.58923251	     -1.12959327	    -50.75027138	     11.67071861	     -2.73058093	      1.76099635	     -1.74779416	     -0.42742240	     -0.87841016
      1.17533333	     -0.23163272	     -2.92201882	      4.07493813	      0.57120934	      1.03187463	      0.30711237	      6.99983878	     10.25551961	      3.39453627	    -18.30275040	      6.35517844	    -13.86253482	      6.78506708	     20.24862028	     -5.52131210	     -1.15032140	    -49.92480141	     11.64319238	     -2.96656562	      1.68806878	     -1.82925438	     -0.45855418	     -0.75459167
      1.17950000	     -0.23533937	     -2.89756251	      3.92143302	      0.57550415	      1.03200724	      0.30729413	      6.63350686	     10.25023984	      3.50670082	    -18.11772150	      6.49164666	    -13.75838067	      6.69338674	     20.62427939	     -5.44898040	     -1.13894668	    -49.07773532	     11.58162035	     -3.22564194	      1.56549715	     -1.87187592	     -0.48491119	     -0.57233948
      1.18366667	     -0.23294049	     -2.87838667	      3.73431089	      0.57983731	      1.03213800	      0.30754218	      6.24982771	     10.25903614	      3.69330908	    -17.91952086	      6.62887173	    -13.68594082	      6.66103194	     20.97192345	     -5.41420699	     -1.19906928	    -48.20868056	     11.56352274	     -3.40507265	      1.51430252	     -1.91142380	     -0.52004424	     -0.51001517
      1.18783333	     -0.22221408	     -2.83435593	      3.54513128	      0.58411209	      1.03226169	      0.30775356	      5.88007585	     10.23601711	      3.86546056	    -17.76927349	      6.76291054	    -13.61365321	      6.60884968	     21.28772830	     -5.33103159	     -1.21118756	    -47.28917907	     11.44244360	     -3.69964552	      1.43376045	     -2.01586523	     -0.55496014	     -0.35544990
      1.19200000	     -0.22355024	     -2.80717238	      3.35674370	      0.58842366	      1.03234247	      0.30796792	      5.51760804	     10.22828627	      4.03326288	    -17.60466446	      6.89420146	    -13.53692689	      6.55420477	     21.60645454	     -5.27237757	     -1.22784717	    -46.35581478	     11.33576934	     -3.95732491	      1.34933029	     -2.06821907	     -0.58229428	     -0.20570883
      1.19616667	     -0.25354581	     -2.78343720	      3.16175234	      0.59273208	      1.03233529	      0.30820311	      5.19216500	     10.22339141	      4.21659194	    -17.45346254	      7.02903385	    -13.47154837	      6.50312217	     21.94713352	     -5.22276245	     -1.25197763	    -45.40831321	     11.21627289	     -4.21554902	      1.26766142	     -2.08867435	     -0.60835335	     -0.06753745
      1.20033333	     -0.23406028	     -2.75238294	      2.98002769	      0.59706325	      1.03241249	      0.30839988	      4.80805239	     10.20575920	      4.36531528	    -17.28952130	      7.15627087	    -13.39820880	      6.42729861	     22.20995393	     -5.15695717	     -1.24566395	    -44.41611852	     11.06443199	     -4.51430836	      1.15070126	     -2.14745382	     -0.63762680	      0.12376905
      1.20450000	     -0.24702646	     -2.72572903	      2.77599986	      0.60137597	      1.03239354	      0.30864760	      4.46849100	     10.19643387	      4.56207187	    -17.14883190	      7.28845590	    -13.34187234	      6.35455616	     22.49870046	     -5.10966778	     -1.26688157	    -43.41630326	     10.91062002	     -4.78558893	      1.03474481	     -2.18557796	     -0.67126763	      0.27920410
      1.20866667	     -0.26689540	     -2.69749164	      2.55186340	      0.60567548	      1.03234333	      0.30893788	      4.14644517	     10.18758076	      4.78741460	    -17.03235290	      7.42357370	    -13.29223642	      6.30264769	     22.77819679	     -5.07342229	     -1.31040333	    -42.39407907	     10.75238332	     -5.02922987	      0.94489554	     -2.23372404	     -0.70978648	      0.40228294
      1.21283333	     -0.27694691	     -2.67176270	      2.33721527	      0.60999391	      1.03229433	      0.30920115	      3.80994609	     10.17620547	      4.99715524	    -16.90567599	      7.55070704	    -13.24269482	      6.25339494	     23.03135506	     -5.03482249	     -1.33407031	    -41.34468472	     10.56823780	     -5.30723911	      0.85594287	     -2.27508593	     -0.74592404	      0.54871301
      1.21700000	     -0.29334282	     -2.65603179	      2.12313294	      0.61430136	      1.03219918	      0.30948048	      3.48573114	     10.17528714	      5.20862366	    -16.78702125	      7.67720659	    -13.19988752	      6.20660624	     23.28406134	     -5.01102100	     -1.35295856	    -40.28533003	     10.38481722	     -5.57000695	      0.76848655	     -2.30664962	     -0.76907751	      0.70163853
      1.22116667	     -0.30769931	     -2.63800582	      1.90808887	      0.61860718	      1.03209505	      0.30976130	      3.16426789	     10.17049514	      5.41731500	    -16.67904543	      7.80059575	    -13.16328166	      6.15589220	     23.51816603	     -4.98413673	     -1.36342231	    -39.20092163	     10.18412603	     -5.84773951	      0.67266707	     -2.34011319	     -0.79539410	      0.86799250
      1.22533333	     -0.32544799	     -2.61787000	      1.69187027	      0.62290644	      1.03195407	      0.31004783	      2.85313341	     10.16106679	      5.62264400	    -16.58457531	      7.93001902	    -13.12488625	      6.10060235	     23.74269466	     -4.95731906	     -1.36930528	    -38.09769308	      9.97900612	     -6.12586919	      0.56700252	     -2.36765684	     -0.82449365	      1.04156146
      1.22950000	     -0.34734036	     -2.60671606	      1.48780467	      0.62721740	      1.03177555	      0.31031408	      2.54378632	     10.15700287	      5.80826593	    -16.47970896	      8.06078722	    -13.08183765	      6.02743126	     23.96540302	     -4.93733677	     -1.36042491	    -36.98679947	      9.77125265	     -6.41577389	      0.43054389	     -2.38438573	     -0.83659515	      1.24136010
      1.23366667	     -0.37541300	     -2.60438844	      1.25192582	      0.63150056	      1.03156280	      0.31065700	      2.25192586	     10.16842781	      6.05823739	    -16.40290505	      8.20305764	    -13.04961503	      5.98939956	     24.18646895	     -4.95758962	     -1.42033916	    -35.87612830	      9.59893903	     -6.58161805	      0.34981324	     -2.42838123	     -0.85826862	      1.34205082
      1.23783333	     -0.40735847	     -2.58937644	      1.02673583	      0.63579293	      1.03132699	      0.31098328	      1.96932749	     10.16221853	      6.27795687	    -16.33666816	      8.34147213	    -13.02359239	      5.94750844	     24.39077896	     -4.95126298	     -1.43318344	    -34.72943066	      9.39242909	     -6.81948132	      0.26053494	     -2.44387570	     -0.89042309	      1.49903234
